<svg xmlns="http://www.w3.org/2000/svg" xmlns:xlink="http://www.w3.org/1999/xlink" version="1.1" width="800" height="720">
  <desc version="4.6"></desc>
  <g id="Layer1" name="Layer 1" opacity="1">
    <g id="Shape1">
      <desc type="0" transform="matrix(2.04339,0,0,2.04339,403.207,294.441)"></desc>
      <path id="shapePath1" d="M45.3845,197.951 C68.4135,93.5545 172.075,15.4767 248.232,15.1906 C334.054,14.8637 407.187,80.579 464.831,86.3822 C515.67,91.5111 578.627,16.764 669.169,35.6245 C742.731,50.9499 783.599,160.925 771.339,230.686 C748.596,360.155 689.603,437.477 607.214,452.414 C571.128,458.973 554.086,447.551 536.349,450.882 C457.413,465.655 404.019,564.617 233.928,573.485 C103.151,580.167 -4.55588,424.318 45.3845,197.951 Z" style="stroke:none;fill-rule:nonzero;fill:#1DA9FF;fill-opacity:1;"></path>
    </g>
    <g id="Shape2">
      <desc type="0" transform="matrix(2.04339,0,0,2.04339,403.207,294.441)"></desc>
      <path id="shapePath2" d="M45.3845,197.951 C68.4135,93.5545 172.075,15.4767 248.232,15.1906 C334.054,14.8637 407.187,80.579 464.831,86.3822 C515.67,91.5111 578.627,16.764 669.169,35.6245 C742.731,50.9499 783.599,160.925 771.339,230.686 C748.596,360.155 689.603,437.477 607.214,452.414 C571.128,458.973 554.086,447.551 536.349,450.882 C457.413,465.655 404.019,564.617 233.928,573.485 C103.151,580.167 -4.55588,424.318 45.3845,197.951 Z" style="stroke:none;fill-rule:nonzero;fill:#b3e2ff;fill-opacity:0.901961;"></path>
    </g>
    <g id="Shape3">
      <desc type="0" transform="matrix(2.04339,0,0,2.04339,399.565,625.142)"></desc>
      <path id="shapePath3" d="M795.757,625.142 C795.757,637.917 618.376,648.273 399.565,648.273 C180.754,648.273 3.3725,637.917 3.3725,625.142 C3.3725,612.367 180.754,602.011 399.565,602.011 C618.376,602.011 795.757,612.367 795.757,625.142 Z" style="stroke:none;fill-rule:evenodd;fill:#b3e2ff;fill-opacity:1;"></path>
    </g>
    <g id="Shape4">
      <desc type="0" transform="matrix(2.04339,0,0,2.04339,590.396,342.671)"></desc>
      <path id="shapePath4" d="M631.387,73.7132 L564.854,73.7132 L517.856,611.635 L584.389,611.635 C603.713,611.261 619.723,596.532 621.701,577.306 L662.753,108.022 C663.718,99.1763 660.83,90.3435 654.826,83.7765 C648.822,77.2094 640.283,73.5433 631.387,73.7132 Z" style="stroke:none;fill-rule:nonzero;fill:#1DA9FF;fill-opacity:1;"></path>
    </g>
    <g id="Shape5">
      <desc type="0" transform="matrix(2.04339,0,0,2.04339,481.649,342.674)"></desc>
      <path id="shapePath5" d="M617.819,73.7132 L392.638,73.7132 C373.313,74.0752 357.294,88.7961 355.305,108.022 L314.253,577.306 C313.297,586.144 316.181,594.968 322.174,601.535 C328.166,608.102 336.69,611.78 345.578,611.635 L570.739,611.635 C590.036,611.222 606.006,596.505 607.99,577.306 L649.042,108.022 C650.003,99.2015 647.134,90.3928 641.162,83.8309 C635.191,77.269 626.69,73.5848 617.819,73.7132 Z" style="stroke:none;fill-rule:nonzero;fill:#1DA9FF;fill-opacity:1;"></path>
    </g>
    <g id="Shape6">
      <desc type="0" transform="matrix(2.04339,0,0,2.04339,481.649,342.674)"></desc>
      <path id="shapePath6" d="M617.819,73.7132 L392.638,73.7132 C373.313,74.0752 357.294,88.7961 355.305,108.022 L314.253,577.306 C313.297,586.144 316.181,594.968 322.174,601.535 C328.166,608.102 336.69,611.78 345.578,611.635 L570.739,611.635 C590.036,611.222 606.006,596.505 607.99,577.306 L649.042,108.022 C650.003,99.2015 647.134,90.3928 641.162,83.8309 C635.191,77.269 626.69,73.5848 617.819,73.7132 Z" style="stroke:none;fill-rule:nonzero;fill:#b3e2ff;fill-opacity:0.298039;"></path>
    </g>
    <g id="Shape7">
      <desc type="0" transform="matrix(2.04339,0,0,2.04339,481.691,342.705)"></desc>
      <path id="shapePath7" d="M616.859,84.7067 L557.478,84.7067 C553.856,84.7362 550.617,86.9706 549.304,90.3464 C544.514,102.743 532.697,111.006 519.409,111.25 L484.386,111.25 C471.765,111.505 460.744,102.757 458.128,90.4077 C457.431,87.066 454.451,84.6959 451.038,84.7679 L391.677,84.7679 C378.541,85.0002 367.651,95.0128 366.319,108.083 L325.247,577.367 C324.582,583.378 326.537,589.385 330.613,593.852 C334.69,598.32 340.492,600.816 346.539,600.703 L571.72,600.703 C584.859,600.46 595.747,590.441 597.079,577.367 L638.13,108.083 C638.808,102.069 636.861,96.0546 632.787,91.5783 C628.714,87.1021 622.91,84.598 616.859,84.7067 Z" style="stroke:none;fill-rule:nonzero;fill:#b3e2ff;fill-opacity:0.4;"></path>
    </g>
    <g id="Shape8">
      <desc type="0" transform="matrix(2.04339,0,0,2.04339,483.098,326.725)"></desc>
      <path id="shapePath8" d="M560.747,339.701 L403.161,339.701 C400.97,339.737 398.869,338.831 397.392,337.213 C395.914,335.594 395.202,333.42 395.437,331.241 L396.234,322.21 C396.719,317.47 400.666,313.839 405.429,313.75 L563.036,313.75 C565.227,313.714 567.328,314.62 568.805,316.238 C570.283,317.856 570.994,320.031 570.76,322.21 L569.983,331.241 C569.488,335.991 565.523,339.623 560.747,339.701 Z" style="stroke:none;fill-rule:nonzero;fill:#ffffff;fill-opacity:1;"></path>
    </g>
    <g id="Shape9">
      <desc type="0" transform="matrix(2.04339,0,0,2.04339,479.695,365.55)"></desc>
      <path id="shapePath9" d="M557.355,378.525 L399.749,378.525 C397.559,378.562 395.46,377.655 393.985,376.036 C392.511,374.417 391.804,372.242 392.045,370.066 L392.822,361.034 C393.315,356.299 397.257,352.672 402.017,352.574 L559.623,352.574 C561.814,352.538 563.915,353.444 565.393,355.063 C566.87,356.681 567.582,358.855 567.347,361.034 L566.55,370.066 C566.057,374.801 562.115,378.427 557.355,378.525 Z" style="stroke:none;fill-rule:nonzero;fill:#ffffff;fill-opacity:1;"></path>
    </g>
    <g id="Shape10">
      <desc type="0" transform="matrix(2.04339,0,0,2.04339,503.481,93.4932)"></desc>
      <path id="shapePath10" d="M512.871,93.4932 C512.333,98.7565 507.944,102.786 502.654,102.872 C500.224,102.916 497.892,101.913 496.253,100.118 C494.615,98.3224 493.827,95.9093 494.092,93.4932 C494.63,88.2299 499.019,84.2005 504.309,84.114 C506.739,84.0702 509.071,85.0738 510.709,86.8689 C512.348,88.664 513.135,91.0771 512.871,93.4932 Z" style="stroke:none;fill-rule:nonzero;fill:#000000;fill-opacity:0.0980392;"></path>
    </g>
    <g id="Shape11">
      <desc type="0" transform="matrix(2.04339,0,0,2.04339,503.49,93.4934)"></desc>
      <path id="shapePath11" d="M508.62,93.4932 C508.322,96.3657 505.929,98.5654 503.042,98.6221 C501.713,98.6479 500.437,98.0996 499.541,97.1174 C498.645,96.1352 498.215,94.8145 498.363,93.4932 C498.652,90.6163 501.05,88.4119 503.941,88.3643 C505.268,88.3451 506.54,88.8955 507.435,89.876 C508.329,90.8565 508.761,92.1733 508.62,93.4932 Z" style="stroke:none;fill-rule:nonzero;fill:#000000;fill-opacity:0.0980392;"></path>
    </g>
    <g id="Shape12">
      <desc type="0" transform="matrix(2.04339,0,0,2.04339,589.589,103.884)"></desc>
      <path id="shapePath12" d="M589.13,109.146 C588.416,109.155 587.733,108.859 587.252,108.332 C586.772,107.804 586.54,107.096 586.616,106.387 L587.066,101.36 C587.221,99.8226 588.504,98.6454 590.049,98.6221 C590.759,98.6128 591.439,98.9063 591.918,99.429 C592.398,99.9518 592.633,100.654 592.563,101.36 L592.113,106.387 C591.959,107.928 590.678,109.112 589.13,109.146 Z" style="stroke:none;fill-rule:nonzero;fill:#ffffff;fill-opacity:0.8;"></path>
    </g>
    <g id="Shape13">
      <desc type="0" transform="matrix(2.04339,0,0,2.04339,611.872,100.502)"></desc>
      <path id="shapePath13" d="M611.117,109.146 C610.403,109.155 609.72,108.859 609.239,108.332 C608.759,107.804 608.527,107.096 608.603,106.387 L609.645,94.5966 C609.801,93.059 611.083,91.8818 612.629,91.8585 C613.338,91.8492 614.018,92.1427 614.498,92.6654 C614.978,93.1881 615.212,93.8905 615.142,94.5966 L614.1,106.387 C613.945,107.928 612.665,109.112 611.117,109.146 Z" style="stroke:none;fill-rule:nonzero;fill:#ffffff;fill-opacity:0.8;"></path>
    </g>
    <g id="Shape14">
      <desc type="0" transform="matrix(2.04339,0,0,2.04339,600.727,102.188)"></desc>
      <path id="shapePath14" d="M600.123,109.146 C599.41,109.155 598.726,108.859 598.246,108.332 C597.765,107.804 597.534,107.096 597.61,106.387 L598.345,97.9887 C598.501,96.4398 599.793,95.2534 601.349,95.2301 C602.061,95.2194 602.743,95.5162 603.221,96.0445 C603.698,96.5728 603.925,97.2813 603.842,97.9887 L603.107,106.387 C602.952,107.928 601.672,109.112 600.123,109.146 Z" style="stroke:none;fill-rule:nonzero;fill:#ffffff;fill-opacity:0.8;"></path>
    </g>
    <g id="Shape15">
      <desc type="0" transform="matrix(2.04339,0,0,2.04339,394.426,103.884)"></desc>
      <path id="shapePath15" d="M400.873,109.146 L387.059,109.146 C386.657,109.154 386.271,108.988 386,108.69 C385.73,108.393 385.602,107.992 385.649,107.593 L386.283,100.175 C386.375,99.3037 387.103,98.6378 387.979,98.6221 L401.792,98.6221 C402.194,98.6134 402.581,98.7794 402.851,99.0773 C403.121,99.3751 403.249,99.7756 403.202,100.175 L402.548,107.593 C402.474,108.465 401.748,109.138 400.873,109.146 Z" style="stroke:none;fill-rule:nonzero;fill:#ffffff;fill-opacity:0.8;"></path>
    </g>
    <g id="Shape16">
      <desc type="0" transform="matrix(2.04339,0,0,2.04339,407.545,103.874)"></desc>
      <path id="shapePath16" d="M407.268,107.123 C406.865,107.131 406.477,106.965 406.204,106.668 C405.93,106.371 405.797,105.971 405.838,105.57 L406.145,102.178 C406.228,101.302 406.961,100.631 407.841,100.625 C408.243,100.616 408.629,100.782 408.899,101.08 C409.17,101.378 409.298,101.778 409.25,102.178 L408.964,105.57 C408.872,106.441 408.145,107.107 407.268,107.123 Z" style="stroke:none;fill-rule:nonzero;fill:#ffffff;fill-opacity:0.8;"></path>
    </g>
    <g id="Shape17">
      <desc type="0" transform="matrix(2.04339,0,0,2.04339,491.118,234.691)"></desc>
      <path id="shapePath17" d="M540.906,187.029 C565.02,212.219 562.278,253.978 534.781,280.301 C507.284,306.624 465.444,307.542 441.33,282.352 C417.216,257.162 419.958,215.403 447.456,189.08 C474.953,162.757 516.792,161.839 540.906,187.029 Z" style="stroke:none;fill-rule:evenodd;fill:#ffffff;fill-opacity:1;"></path>
    </g>
    <g id="Shape18">
      <desc type="0" transform="matrix(2.04339,0,0,2.04339,488.87,250.599)"></desc>
      <path id="shapePath18" d="M491.354,232.178 C474.026,232.178 459.375,238.778 458.128,253.102 L456.739,269.02 L519.532,269.02 L520.922,253.102 C522.168,238.778 508.702,232.178 491.354,232.178 Z" style="stroke:none;fill-rule:nonzero;fill:#1DA9FF;fill-opacity:1;"></path>
    </g>
    <g id="Shape19">
      <desc type="0" transform="matrix(2.04339,0,0,2.04339,493.2,211.049)"></desc>
      <path id="shapePath19" d="M491.926,225.619 C499.977,225.619 503.696,219.1 504.391,211.049 C505.085,202.998 502.531,196.48 494.48,196.48 C486.429,196.48 482.731,203.019 482.015,211.049 C481.3,219.08 483.875,225.619 491.926,225.619 Z" style="stroke:none;fill-rule:nonzero;fill:#1DA9FF;fill-opacity:1;"></path>
    </g>
    <g id="Shape20">
      <desc type="0" transform="matrix(2.04339,0,0,2.04339,552.97,330.73)"></desc>
      <path id="shapePath20" d="M553.554,326.174 C549.284,326.174 545.667,327.808 545.381,331.343 L545.033,335.287 L560.543,335.287 L560.89,331.343 C561.176,327.808 557.845,326.174 553.554,326.174 Z" style="stroke:none;fill-rule:nonzero;fill:#1DA9FF;fill-opacity:1;"></path>
    </g>
    <g id="Shape21">
      <desc type="0" transform="matrix(2.04339,0,0,2.04339,554.014,320.963)"></desc>
      <path id="shapePath21" d="M553.697,324.559 C555.741,324.559 556.599,322.945 556.783,320.963 C556.967,318.981 556.313,317.367 554.331,317.367 C552.349,317.367 551.429,318.981 551.245,320.963 C551.062,322.945 551.715,324.559 553.697,324.559 Z" style="stroke:none;fill-rule:nonzero;fill:#1DA9FF;fill-opacity:1;"></path>
    </g>
    <g id="Shape22">
      <desc type="0" transform="matrix(2.04339,0,0,2.04339,476.303,404.374)"></desc>
      <path id="shapePath22" d="M505.821,417.35 L444.519,417.35 C441.157,417.41 437.93,416.022 435.662,413.539 C433.394,411.056 432.303,407.717 432.668,404.374 C433.42,397.103 439.479,391.535 446.787,391.399 L508.089,391.399 C511.45,391.344 514.672,392.734 516.938,395.216 C519.205,397.698 520.298,401.032 519.941,404.374 C519.197,411.65 513.133,417.222 505.821,417.35 Z" style="stroke:none;fill-rule:nonzero;fill:#1DA9FF;fill-opacity:1;"></path>
    </g>
    <g id="Shape23">
      <desc type="0" transform="matrix(2.04339,0,0,2.04339,468.891,524.424)"></desc>
      <path id="shapePath23" d="M498.403,562.062 L432.79,562.062 C429.229,562.159 425.801,560.701 423.4,558.068 C420.999,555.436 419.862,551.889 420.285,548.351 L424.474,500.495 C425.249,492.811 431.648,486.921 439.37,486.784 L505.004,486.784 C508.555,486.722 511.961,488.19 514.354,490.814 C516.748,493.438 517.897,496.965 517.509,500.495 L513.32,548.351 C512.526,556.034 506.126,561.917 498.403,562.062 Z" style="stroke:none;fill-rule:nonzero;fill:#1DA9FF;fill-opacity:1;"></path>
    </g>
    <g id="Shape24">
      <desc type="0" transform="matrix(2.04339,0,0,2.04339,469.928,522.482)"></desc>
      <path id="shapePath24" d="M478.174,512.571 C478.391,510.459 477.692,508.355 476.254,506.792 C474.816,505.229 472.777,504.358 470.654,504.398 C466.028,504.464 462.179,507.972 461.684,512.571 C461.419,515.098 462.459,517.585 464.442,519.172 L463.012,535.662 C462.87,536.925 463.281,538.189 464.138,539.128 C464.995,540.067 466.216,540.591 467.487,540.566 C470.242,540.508 472.522,538.404 472.8,535.662 L474.251,519.172 C476.467,517.657 477.902,515.242 478.174,512.571 Z" style="stroke:none;fill-rule:nonzero;fill:#b3e2ff;fill-opacity:0.6;"></path>
    </g>
    <g id="Shape25">
      <desc type="0" transform="matrix(2.04339,0,0,2.04339,472.4,467.778)"></desc>
      <path id="shapePath25" d="M505.576,496.756 L497.116,496.756 L499.159,473.073 C499.881,466.424 497.713,459.785 493.206,454.844 C488.699,449.903 482.286,447.135 475.599,447.244 C461.061,447.529 449.017,458.609 447.523,473.073 L445.48,496.756 L437.02,496.756 L439.063,473.073 C441.033,453.876 457.02,439.169 476.314,438.805 C485.191,438.654 493.704,442.323 499.69,448.879 C505.675,455.435 508.556,464.247 507.599,473.073 L505.576,496.756 Z" style="stroke:none;fill-rule:nonzero;fill:#1DA9FF;fill-opacity:1;"></path>
    </g>
    <g id="Shape26">
      <desc type="0" transform="matrix(2.04339,0,0,2.04339,550.037,363.915)"></desc>
      <path id="shapePath26" d="M554.597,362.444 L554.862,360.135 C554.973,359.052 554.617,357.974 553.883,357.17 C553.15,356.367 552.109,355.914 551.021,355.925 C548.652,355.974 546.69,357.779 546.443,360.135 L546.239,362.403 C545.292,362.429 544.513,363.156 544.421,364.099 L543.889,370.229 C543.835,370.663 543.974,371.098 544.269,371.421 C544.564,371.743 544.985,371.92 545.422,371.905 L553.841,371.905 C554.784,371.889 555.566,371.168 555.659,370.229 L556.19,364.099 C556.226,363.661 556.072,363.228 555.767,362.912 C555.462,362.595 555.036,362.425 554.597,362.444 M550.775,357.008 C551.595,356.999 552.381,357.338 552.935,357.943 C553.489,358.548 553.759,359.36 553.677,360.176 L553.473,362.444 L547.138,362.444 L547.343,360.176 C547.527,358.407 548.997,357.05 550.775,357.008 Z" style="stroke:none;fill-rule:nonzero;fill:#1DA9FF;fill-opacity:1;"></path>
    </g>
    <g id="Shape27">
      <desc type="0" transform="matrix(2.04339,0,0,2.04339,421.849,365.468)"></desc>
      <path id="shapePath27" d="M427.866,364.875 L424.923,364.262 C424.757,364.228 424.616,364.12 424.54,363.969 C424.464,363.817 424.462,363.639 424.535,363.486 L425.761,360.584 C425.866,360.326 425.769,360.028 425.531,359.882 C425.294,359.735 424.985,359.782 424.801,359.992 L422.573,362.28 C422.465,362.418 422.299,362.499 422.124,362.499 C421.948,362.499 421.783,362.418 421.674,362.28 L419.856,359.992 C419.467,359.501 418.63,359.992 418.773,360.584 L419.488,363.486 C419.53,363.657 419.499,363.838 419.402,363.986 C419.305,364.133 419.151,364.233 418.977,364.262 L415.932,364.875 C415.278,364.998 415.197,365.918 415.83,366.04 L418.773,366.653 C418.94,366.685 419.081,366.794 419.154,366.948 C419.227,367.101 419.222,367.28 419.14,367.43 L417.955,370.352 C417.85,370.611 417.947,370.908 418.185,371.054 C418.423,371.201 418.732,371.155 418.916,370.944 L421.143,368.656 C421.259,368.531 421.422,368.459 421.592,368.459 C421.763,368.459 421.926,368.531 422.042,368.656 L423.861,370.944 C424.249,371.435 425.087,370.944 424.923,370.352 L424.208,367.45 C424.145,367.09 424.381,366.746 424.739,366.674 L427.784,366.061 C428.417,365.918 428.499,364.998 427.866,364.875 Z" style="stroke:none;fill-rule:nonzero;fill:#263238;fill-opacity:1;"></path>
    </g>
    <g id="Shape28">
      <desc type="0" transform="matrix(2.04339,0,0,2.04339,441.178,365.458)"></desc>
      <path id="shapePath28" d="M447.196,364.875 L444.254,364.262 C444.088,364.228 443.946,364.12 443.871,363.969 C443.795,363.817 443.793,363.639 443.865,363.486 L445.091,360.584 C445.197,360.326 445.1,360.028 444.862,359.882 C444.624,359.735 444.315,359.781 444.131,359.992 L441.904,362.28 C441.795,362.418 441.63,362.499 441.454,362.499 C441.279,362.499 441.113,362.418 441.005,362.28 L439.186,359.992 C438.798,359.501 437.96,359.992 438.124,360.584 L438.839,363.486 C438.874,363.66 438.838,363.841 438.738,363.987 C438.638,364.133 438.482,364.233 438.307,364.262 L435.263,364.875 C434.609,364.998 434.527,365.918 435.161,366.04 L438.103,366.653 C438.269,366.687 438.41,366.795 438.486,366.947 C438.562,367.099 438.564,367.276 438.491,367.43 L437.265,370.331 C437.16,370.59 437.257,370.887 437.495,371.034 C437.733,371.181 438.042,371.134 438.226,370.924 L440.453,368.635 C440.569,368.51 440.732,368.439 440.903,368.439 C441.073,368.439 441.236,368.51 441.352,368.635 L443.171,370.924 C443.559,371.414 444.397,370.924 444.254,370.331 L443.538,367.43 C443.502,367.259 443.536,367.081 443.632,366.935 C443.728,366.789 443.878,366.688 444.049,366.653 L447.094,366.04 C447.748,365.918 447.83,364.998 447.196,364.875 Z" style="stroke:none;fill-rule:nonzero;fill:#263238;fill-opacity:1;"></path>
    </g>
    <g id="Shape29">
      <desc type="0" transform="matrix(2.04339,0,0,2.04339,460.505,365.458)"></desc>
      <path id="shapePath29" d="M466.527,364.875 L463.605,364.262 C463.434,364.236 463.286,364.129 463.209,363.975 C463.132,363.82 463.135,363.638 463.216,363.486 L464.442,360.584 C464.606,360.313 464.519,359.961 464.248,359.798 C463.977,359.634 463.625,359.721 463.461,359.992 L461.255,362.28 C461.142,362.419 460.973,362.499 460.795,362.499 C460.617,362.499 460.448,362.419 460.335,362.28 L458.517,359.992 C458.128,359.501 457.29,359.992 457.454,360.584 L458.169,363.486 C458.205,363.657 458.172,363.835 458.076,363.981 C457.98,364.127 457.829,364.228 457.658,364.262 L454.614,364.875 C453.96,364.998 453.878,365.918 454.512,366.04 L457.434,366.653 C457.6,366.687 457.741,366.795 457.817,366.947 C457.892,367.099 457.894,367.276 457.822,367.43 L456.596,370.331 C456.432,370.602 456.519,370.954 456.79,371.118 C457.061,371.282 457.413,371.195 457.577,370.924 L459.783,368.635 C459.899,368.51 460.062,368.439 460.233,368.439 C460.404,368.439 460.567,368.51 460.682,368.635 L462.522,370.924 C462.91,371.414 463.748,370.924 463.584,370.331 L462.869,367.43 C462.805,367.076 463.03,366.735 463.38,366.653 L466.424,366.04 C466.997,365.918 467.16,364.998 466.527,364.875 Z" style="stroke:none;fill-rule:nonzero;fill:#263238;fill-opacity:1;"></path>
    </g>
    <g id="Shape30">
      <desc type="0" transform="matrix(2.04339,0,0,2.04339,479.872,365.458)"></desc>
      <path id="shapePath30" d="M485.877,364.875 L482.935,364.262 C482.769,364.228 482.628,364.12 482.552,363.969 C482.476,363.817 482.474,363.639 482.547,363.486 L483.773,360.584 C483.878,360.326 483.781,360.028 483.543,359.882 C483.305,359.735 482.996,359.781 482.812,359.992 L480.585,362.28 C480.477,362.418 480.311,362.499 480.135,362.499 C479.96,362.499 479.794,362.418 479.686,362.28 L477.867,359.992 C477.479,359.501 476.641,359.992 476.784,360.584 L477.5,363.486 C477.542,363.657 477.511,363.838 477.414,363.986 C477.317,364.133 477.163,364.233 476.989,364.262 L473.944,364.875 C473.29,364.998 473.208,365.918 473.944,366.04 L476.887,366.653 C477.054,366.685 477.195,366.794 477.268,366.948 C477.341,367.101 477.336,367.28 477.254,367.43 L476.049,370.331 C475.943,370.59 476.04,370.887 476.278,371.034 C476.516,371.181 476.825,371.134 477.009,370.924 L479.236,368.635 C479.352,368.51 479.515,368.439 479.686,368.439 C479.857,368.439 480.02,368.51 480.135,368.635 L481.954,370.924 C482.342,371.414 483.18,370.924 483.017,370.331 L482.301,367.43 C482.239,367.07 482.475,366.725 482.833,366.653 L485.877,366.04 C486.429,365.918 486.511,364.998 485.877,364.875 Z" style="stroke:none;fill-rule:nonzero;fill:#263238;fill-opacity:1;"></path>
    </g>
    <g id="Shape31">
      <desc type="0" transform="matrix(2.04339,0,0,2.04339,499.197,365.458)"></desc>
      <path id="shapePath31" d="M505.208,364.875 L502.265,364.262 C502.099,364.228 501.958,364.12 501.882,363.969 C501.807,363.817 501.805,363.639 501.877,363.486 L503.103,360.584 C503.208,360.326 503.111,360.028 502.874,359.882 C502.636,359.735 502.327,359.781 502.143,359.992 L499.915,362.28 C499.807,362.418 499.641,362.499 499.466,362.499 C499.291,362.499 499.125,362.418 499.016,362.28 L497.198,359.992 C496.81,359.501 495.972,359.992 496.135,360.584 L496.85,363.486 C496.886,363.66 496.85,363.841 496.75,363.987 C496.649,364.133 496.494,364.233 496.319,364.262 L493.274,364.875 C492.621,364.998 492.539,365.918 493.172,366.04 L496.115,366.653 C496.281,366.687 496.422,366.795 496.498,366.947 C496.574,367.099 496.575,367.276 496.503,367.43 L495.277,370.331 C495.172,370.59 495.269,370.887 495.507,371.034 C495.744,371.181 496.053,371.134 496.237,370.924 L498.465,368.635 C498.581,368.51 498.744,368.439 498.914,368.439 C499.085,368.439 499.248,368.51 499.364,368.635 L501.182,370.924 C501.571,371.414 502.408,370.924 502.265,370.331 L501.55,367.43 C501.514,367.259 501.548,367.081 501.644,366.935 C501.74,366.789 501.89,366.688 502.061,366.653 L505.106,366.04 C505.821,365.918 505.821,364.998 505.208,364.875 Z" style="stroke:none;fill-rule:nonzero;fill:#263238;fill-opacity:1;"></path>
    </g>
    <g id="Shape32">
      <desc type="0" transform="matrix(2.04339,0,0,2.04339,518.531,365.458)"></desc>
      <path id="shapePath32" d="M524.538,364.875 L521.596,364.262 C521.429,364.231 521.287,364.121 521.214,363.968 C521.142,363.814 521.147,363.635 521.228,363.486 L522.454,360.584 C522.618,360.313 522.531,359.961 522.26,359.798 C521.989,359.634 521.637,359.721 521.473,359.992 L519.266,362.28 C519.154,362.419 518.985,362.499 518.807,362.499 C518.628,362.499 518.459,362.419 518.347,362.28 L516.528,359.992 C516.14,359.501 515.302,359.992 515.466,360.584 L516.181,363.486 C516.217,363.657 516.183,363.835 516.087,363.981 C515.992,364.127 515.841,364.228 515.67,364.262 L512.625,364.875 C511.971,364.998 511.89,365.918 512.523,366.04 L515.445,366.653 C515.611,366.687 515.752,366.795 515.828,366.947 C515.904,367.099 515.906,367.276 515.833,367.43 L514.607,370.331 C514.444,370.602 514.531,370.954 514.802,371.118 C515.072,371.282 515.425,371.195 515.588,370.924 L517.795,368.635 C517.911,368.51 518.074,368.439 518.245,368.439 C518.415,368.439 518.578,368.51 518.694,368.635 L520.513,370.924 C520.709,371.144 521.031,371.2 521.29,371.058 C521.549,370.917 521.676,370.615 521.596,370.331 L520.881,367.43 C520.817,367.076 521.042,366.735 521.391,366.653 L524.436,366.04 C525.09,365.918 525.172,364.998 524.538,364.875 Z" style="stroke:none;fill-rule:nonzero;fill:#263238;fill-opacity:1;"></path>
    </g>
    <g id="Shape33">
      <desc type="0" transform="matrix(2.04339,0,0,2.04339,459.425,326.644)"></desc>
      <path id="shapePath33" d="M477.929,322.557 L441.638,322.557 C439.333,322.596 437.421,324.351 437.184,326.644 C437.065,327.699 437.409,328.753 438.125,329.536 C438.842,330.319 439.862,330.755 440.923,330.73 L477.214,330.73 C479.518,330.691 481.431,328.937 481.668,326.644 C481.779,325.59 481.434,324.54 480.719,323.758 C480.004,322.977 478.988,322.539 477.929,322.557 Z" style="stroke:none;fill-rule:nonzero;fill:#263238;fill-opacity:1;"></path>
    </g>
    <g id="Shape34">
      <desc type="0" transform="matrix(2.04339,0,0,2.04339,503.859,326.644)"></desc>
      <path id="shapePath34" d="M514.791,322.557 L493.724,322.557 C491.423,322.597 489.518,324.354 489.29,326.644 C489.172,327.695 489.513,328.746 490.225,329.528 C490.937,330.311 491.951,330.749 493.009,330.73 L513.994,330.73 C516.295,330.69 518.201,328.933 518.429,326.644 C518.544,325.607 518.214,324.569 517.521,323.79 C516.827,323.01 515.835,322.562 514.791,322.557 Z" style="stroke:none;fill-rule:nonzero;fill:#263238;fill-opacity:1;"></path>
    </g>
    <g id="Shape35">
      <desc type="0" transform="matrix(2.04339,0,0,2.04339,515.629,525.588)"></desc>
      <path id="shapePath35" d="M542.602,507.79 C529.775,512.676 518.195,520.353 508.702,530.267 C502.938,525.792 496.065,522.966 488.82,522.094 L487.86,521.951 L487.451,526.773 L487.982,526.977 C495.928,529.903 502.649,535.435 507.047,542.67 L507.742,543.815 L508.498,542.589 C516.96,529.079 528.902,518.097 543.072,510.794 L543.542,510.548 L543.807,507.361 L542.602,507.79 Z" style="stroke:none;fill-rule:nonzero;fill:#263238;fill-opacity:1;"></path>
    </g>
    <g id="Shape36">
      <desc type="0" transform="matrix(2.04339,0,0,2.04339,394.16,286.787)"></desc>
      <path id="shapePath36" d="M360.005,105.467 C357.401,110.014 355.798,115.065 355.305,120.282 L324.879,468.107 L419.038,468.107 L437.96,395.588 L431.728,323.047 L450.649,250.527 L444.519,178.008 L463.441,105.467 L360.005,105.467 Z" style="stroke:none;fill-rule:nonzero;fill:#000000;fill-opacity:0.2;"></path>
    </g>
    <g id="Shape37">
      <desc type="0" transform="matrix(2.04339,0,0,2.04339,332.266,212.753)"></desc>
      <path id="shapePath37" d="M404.387,187.877 C401.944,188.583 399.411,188.927 396.867,188.899 C393.419,189.052 389.987,188.35 386.875,186.856 C386.312,186.522 385.67,186.346 385.016,186.345 C384.416,186.353 383.827,186.507 383.299,186.794 L383.177,186.794 C382.264,187.307 381.289,187.698 380.275,187.959 C377.988,188.563 375.631,188.858 373.266,188.838 C372.551,188.838 371.856,188.838 371.223,188.838 C369.388,188.72 367.572,188.398 365.808,187.877 C365.549,187.8 365.281,187.752 365.011,187.734 C364.103,187.66 363.204,187.969 362.533,188.586 C361.862,189.202 361.479,190.072 361.476,190.983 L361.476,193.19 L268.788,193.19 C265.349,193.19 262.05,194.558 259.62,196.992 C257.19,199.426 255.828,202.726 255.833,206.166 L255.833,219.223 C255.822,222.666 257.182,225.971 259.613,228.41 C262.044,230.848 265.345,232.219 268.788,232.219 L374.084,232.219 L374.779,232.219 C375.902,233.159 377.088,234.099 378.354,235.059 C379.621,236.019 381.419,237.348 383.075,238.533 C384.233,239.371 385.799,239.371 386.957,238.533 C400.198,228.929 408.699,222.308 408.699,204.122 L408.699,191.044 C408.712,189.983 408.212,188.981 407.357,188.353 C406.502,187.725 405.396,187.548 404.387,187.877 Z" style="stroke:none;fill-rule:nonzero;fill:#000000;fill-opacity:0.2;"></path>
    </g>
    <g id="Shape38">
      <desc type="0" transform="matrix(2.04339,0,0,2.04339,319.423,205.522)"></desc>
      <path id="shapePath38" d="M253.81,198.89 C253.81,191.781 259.391,186.018 266.276,186.018 L372.57,186.018 C379.455,186.018 385.036,191.781 385.036,198.89 L385.036,212.153 C385.036,219.263 379.455,225.026 372.57,225.026 L266.276,225.026 C259.391,225.026 253.81,219.263 253.81,212.153 L253.81,198.89 Z" style="stroke:none;fill-rule:evenodd;fill:#1DA9FF;fill-opacity:1;"></path>
    </g>
    <g id="Shape39">
      <desc type="0" transform="matrix(2.04339,0,0,2.04339,383.013,205.536)"></desc>
      <path id="shapePath39" d="M394.845,181.706 C391.397,181.854 387.966,181.152 384.852,179.663 C383.724,178.97 382.302,178.97 381.174,179.663 C378.055,181.155 374.616,181.856 371.162,181.706 C368.619,181.733 366.086,181.389 363.642,180.684 C362.643,180.349 361.544,180.515 360.689,181.131 C359.834,181.747 359.328,182.737 359.33,183.79 L359.33,196.868 C359.33,215.075 367.831,221.695 381.072,231.299 C382.23,232.138 383.796,232.138 384.955,231.299 C398.196,221.695 406.696,215.075 406.696,196.868 L406.696,183.79 C406.692,182.735 406.181,181.746 405.323,181.131 C404.466,180.516 403.365,180.35 402.364,180.684 C399.921,181.391 397.388,181.735 394.845,181.706 Z" style="stroke:none;fill-rule:nonzero;fill:#1DA9FF;fill-opacity:1;"></path>
    </g>
    <g id="Shape40">
      <desc type="0" transform="matrix(2.04339,0,0,2.04339,383.013,205.536)"></desc>
      <path id="shapePath40" d="M394.845,181.706 C391.397,181.854 387.966,181.152 384.852,179.663 C383.724,178.97 382.302,178.97 381.174,179.663 C378.055,181.155 374.616,181.856 371.162,181.706 C368.619,181.733 366.086,181.389 363.642,180.684 C362.643,180.349 361.544,180.515 360.689,181.131 C359.834,181.747 359.328,182.737 359.33,183.79 L359.33,196.868 C359.33,215.075 367.831,221.695 381.072,231.299 C382.23,232.138 383.796,232.138 384.955,231.299 C398.196,221.695 406.696,215.075 406.696,196.868 L406.696,183.79 C406.692,182.735 406.181,181.746 405.323,181.131 C404.466,180.516 403.365,180.35 402.364,180.684 C399.921,181.391 397.388,181.735 394.845,181.706 Z" style="stroke:none;fill-rule:nonzero;fill:#b3e2ff;fill-opacity:0.298039;"></path>
    </g>
    <g id="Shape41">
      <desc type="0" transform="matrix(2.04339,0,0,2.04339,371.223,205.491)"></desc>
      <path id="shapePath41" d="M381.174,179.622 C378.055,181.114 374.616,181.815 371.162,181.665 C368.619,181.691 366.086,181.347 363.642,180.644 C362.643,180.308 361.544,180.474 360.689,181.09 C359.834,181.706 359.328,182.696 359.331,183.75 L359.331,196.827 C359.331,215.034 367.831,221.654 381.072,231.258 C381.665,231.688 382.383,231.911 383.116,231.892 L383.116,179.091 C382.431,179.077 381.757,179.262 381.174,179.622 Z" style="stroke:none;fill-rule:nonzero;fill:#b3e2ff;fill-opacity:0.2;"></path>
    </g>
    <g id="Shape42">
      <desc type="0" transform="matrix(2.04339,0,0,2.04339,385.046,204.96)"></desc>
      <path id="shapePath42" d="M401.996,193.313 C394.031,196.433 386.937,201.431 381.317,207.882 C377.398,204.993 372.804,203.157 367.974,202.549 L367.341,202.549 L367.341,205.675 L367.688,205.798 C373.061,207.737 377.691,211.31 380.929,216.015 L381.44,216.75 L381.869,215.953 C386.567,207.223 393.721,200.062 402.446,195.356 L402.752,195.213 L402.752,193.17 L401.996,193.313 Z" style="stroke:none;fill-rule:nonzero;fill:#263238;fill-opacity:1;"></path>
    </g>
    <g id="Shape43">
      <desc type="0" transform="matrix(2.04339,0,0,2.04339,447.635,91.8583)"></desc>
      <path id="shapePath43" d="M450.956,105.447 L441.924,105.447 C439.574,105.491 437.318,104.52 435.734,102.783 C434.149,101.046 433.389,98.7111 433.648,96.3744 L434.445,87.3426 C434.952,82.2582 439.186,78.3588 444.295,78.27 L453.326,78.27 C455.68,78.2203 457.942,79.1883 459.531,80.926 C461.12,82.6637 461.882,85.0023 461.622,87.3426 L460.826,96.3744 C460.257,101.436 456.047,105.306 450.956,105.447 Z" style="stroke:none;fill-rule:nonzero;fill:#1DA9FF;fill-opacity:1;"></path>
    </g>
    <g id="Shape44">
      <desc type="0" transform="matrix(2.04339,0,0,2.04339,273.406,211.233)"></desc>
      <path id="shapePath44" d="M249.11,183.361 C254.341,189.062 259.327,194.968 264.293,200.914 C269.258,206.86 274.06,212.929 278.841,219.018 C279.046,219.284 278.964,219.182 279.005,219.264 C279.046,219.345 279.005,219.366 279.005,219.386 C279.041,219.462 279.089,219.531 279.148,219.591 C279.5,220.091 280.037,220.429 280.64,220.531 C280.87,220.562 281.104,220.562 281.334,220.531 C281.457,220.54 281.58,220.54 281.702,220.531 L281.886,220.531 C281.988,220.531 281.886,220.531 282.213,220.408 L287.322,217.629 C294.187,213.992 301.114,210.436 308.266,207.249 L314.253,214.666 C308.491,219.958 302.483,226.599 296.415,231.463 L291.837,235.059 C291.553,235.291 291.253,235.503 290.938,235.693 C290.591,235.939 290.23,236.164 289.855,236.367 C289.116,236.793 288.351,237.175 287.567,237.511 C285.984,238.176 284.322,238.636 282.622,238.88 C279.184,239.385 275.675,239.034 272.405,237.858 C270.742,237.268 269.162,236.464 267.705,235.468 C266.969,234.977 266.275,234.405 265.662,233.853 C265.314,233.567 265.028,233.24 264.701,232.934 L263.884,232.117 C258.469,226.559 253.136,220.96 247.905,215.259 C242.674,209.558 237.504,203.816 232.559,197.849 L249.11,183.361 Z" style="stroke:none;fill-rule:nonzero;fill:#b55b52;fill-opacity:1;"></path>
    </g>
    <g id="Shape45">
      <desc type="0" transform="matrix(2.04339,0,0,2.04339,314.223,206.114)"></desc>
      <path id="shapePath45" d="M305.569,211.744 L310.33,196.439 L322.876,202.692 C322.876,202.692 321.037,213.849 311.924,215.79 L305.569,211.744 Z" style="stroke:none;fill-rule:nonzero;fill:#b55b52;fill-opacity:1;"></path>
    </g>
    <g id="Shape46">
      <desc type="0" transform="matrix(2.04339,0,0,2.04339,168.75,220.806)"></desc>
      <path id="shapePath46" d="M183.15,187.53 C181.801,194.028 180.125,200.464 178.389,206.881 C176.652,213.297 174.751,219.652 172.769,226.007 L172.034,228.398 L171.666,229.583 C171.616,229.753 171.548,229.918 171.461,230.073 C171.228,230.73 171.097,231.42 171.073,232.117 C171.03,233.601 171.444,235.063 172.258,236.305 C172.66,236.85 173.104,237.363 173.587,237.838 L175.283,239.698 L178.634,243.437 C180.82,245.971 183.027,248.505 185.111,251.161 L177.98,259.334 C175.037,257.659 172.218,255.84 169.398,254.042 L165.209,251.263 L163.165,249.853 C162.471,249.363 161.898,249.036 160.775,248.116 C156.777,244.709 154.018,240.075 152.928,234.936 C152.38,232.317 152.249,229.628 152.54,226.967 C152.54,226.313 152.744,225.578 152.846,224.924 L153.071,223.698 L153.5,221.246 C154.644,214.686 155.87,208.148 157.24,201.65 C158.609,195.152 160.08,188.674 161.817,182.278 L183.15,187.53 Z" style="stroke:none;fill-rule:nonzero;fill:#b55b52;fill-opacity:1;"></path>
    </g>
    <g id="Shape47">
      <desc type="0" transform="matrix(2.04339,0,0,2.04339,184.192,253.829)"></desc>
      <path id="shapePath47" d="M178.123,250.507 L186.542,246.196 L190.261,260.499 C190.261,260.499 183.497,263.094 178.266,259.764 L178.123,250.507 Z" style="stroke:none;fill-rule:nonzero;fill:#b55b52;fill-opacity:1;"></path>
    </g>
    <g id="Shape48">
      <desc type="0" transform="matrix(2.04339,0,0,2.04339,226.96,119.751)"></desc>
      <path id="shapePath48" d="M225.754,119.975 C225.959,120.977 226.674,121.692 227.328,121.569 C227.982,121.447 228.37,120.507 228.165,119.526 C227.961,118.545 227.246,117.81 226.592,117.932 C225.938,118.055 225.55,119.015 225.754,119.975 Z" style="stroke:none;fill-rule:nonzero;fill:#263238;fill-opacity:1;"></path>
    </g>
    <g id="Shape49">
      <desc type="0" transform="matrix(2.04339,0,0,2.04339,229.872,126.508)"></desc>
      <path id="shapePath49" d="M226.572,121.712 C228.411,124.562 230.632,127.147 233.172,129.396 C231.975,130.685 230.27,131.38 228.513,131.296 L226.572,121.712 Z" style="stroke:none;fill-rule:nonzero;fill:#a02724;fill-opacity:1;"></path>
    </g>
    <g id="Shape50">
      <desc type="0" transform="matrix(2.04339,0,0,2.04339,223.219,113.566)"></desc>
      <path id="shapePath50" d="M220.911,115.112 C220.671,115.109 220.454,114.966 220.358,114.746 C220.261,114.526 220.302,114.27 220.462,114.091 C221.76,112.622 223.681,111.863 225.632,112.047 C225.965,112.109 226.184,112.429 226.122,112.762 C226.097,112.921 226.009,113.062 225.878,113.154 C225.748,113.247 225.585,113.282 225.427,113.253 C223.881,113.104 222.358,113.714 221.341,114.887 C221.232,115.015 221.078,115.095 220.911,115.112 Z" style="stroke:none;fill-rule:nonzero;fill:#263238;fill-opacity:1;"></path>
    </g>
    <g id="Shape51">
      <desc type="0" transform="matrix(2.04339,0,0,2.04339,212.232,155.377)"></desc>
      <path id="shapePath51" d="M196.289,134.218 C198.536,143.597 200.805,160.782 192.754,167.014 C192.754,167.014 195.9,176.536 217.274,176.536 C240.773,176.536 228.513,170.406 228.513,170.406 C215.68,167.913 216.007,156.777 218.296,149.482 L196.289,134.218 Z" style="stroke:none;fill-rule:nonzero;fill:#b55b52;fill-opacity:1;"></path>
    </g>
    <g id="Shape52">
      <desc type="0" transform="matrix(2.04339,0,0,2.04339,206.601,164.906)"></desc>
      <path id="shapePath52" d="M190.24,168.751 C188.851,166.156 187.298,163.173 190.485,162.233 C194,161.211 216.539,159.311 223.18,161.231 C221.136,164.848 224.59,169.405 224.59,169.405 L190.24,168.751 Z" style="stroke:none;fill-rule:nonzero;fill:#263238;fill-opacity:1;"></path>
    </g>
    <g id="Shape53">
      <desc type="0" transform="matrix(2.04339,0,0,2.04339,128.75,610.011)"></desc>
      <path id="shapePath53" d="M129.838,602.746 L115.759,599.701 C115.251,599.586 114.731,599.841 114.512,600.315 L109.629,610.92 C109.385,611.441 109.397,612.047 109.661,612.559 C109.925,613.07 110.411,613.431 110.977,613.535 C115.902,614.516 118.354,614.741 124.545,616.089 C128.346,616.907 136.949,619.011 142.2,620.176 C147.452,621.341 149.27,616.273 147.227,615.333 C138.032,611.144 134.19,607.446 131.697,603.993 C131.25,603.365 130.589,602.921 129.838,602.746 Z" style="stroke:none;fill-rule:nonzero;fill:#263238;fill-opacity:1;"></path>
    </g>
    <g id="Shape54">
      <desc type="0" transform="matrix(2.04339,0,0,2.04339,229.494,613.014)"></desc>
      <path id="shapePath54" d="M222.873,605.729 L208.876,605.729 C208.355,605.736 207.907,606.099 207.793,606.608 L205.259,617.99 C205.127,618.548 205.259,619.136 205.619,619.584 C205.978,620.031 206.524,620.287 207.098,620.278 C212.145,620.278 219.358,619.89 225.795,619.89 C233.213,619.89 239.608,620.299 248.272,620.299 C253.524,620.299 254.995,614.986 252.788,614.495 C242.755,612.309 234.582,612.064 225.918,606.731 C225.012,606.127 223.96,605.781 222.873,605.729 Z" style="stroke:none;fill-rule:nonzero;fill:#263238;fill-opacity:1;"></path>
    </g>
    <g id="Shape55">
      <desc type="0" transform="matrix(2.04339,0,0,2.04339,169.358,195.78)"></desc>
      <path id="shapePath55" d="M166.047,171.346 C154.93,176.639 151.906,208.72 151.906,208.72 L179.431,221.43 C184.083,213.582 186.618,204.661 186.787,195.54 C187.339,178.968 177.428,166.013 166.047,171.346 Z" style="stroke:none;fill-rule:nonzero;fill:#263238;fill-opacity:1;"></path>
    </g>
    <g id="Shape56">
      <desc type="0" transform="matrix(2.04339,0,0,2.04339,181.837,206.278)"></desc>
      <path id="shapePath56" d="M180.922,191.126 C175.957,198.85 176.427,210.784 178.143,220.857 L179.369,221.43 C184.018,213.58 186.552,204.661 186.726,195.54 C186.726,194.559 186.726,193.497 186.726,192.618 L180.922,191.126 Z" style="stroke:none;fill-rule:nonzero;fill:#000000;fill-opacity:0.4;"></path>
    </g>
    <g id="Shape57">
      <desc type="0" transform="matrix(2.04339,0,0,2.04339,210.083,223.961)"></desc>
      <path id="shapePath57" d="M242.857,170.57 C242.857,170.57 256.507,185.977 243.613,281.321 L175.099,281.321 C174.629,270.798 181.229,219.488 171.012,169.916 C178.584,168.459 186.242,167.49 193.939,167.014 C203.644,166.462 213.372,166.462 223.077,167.014 C229.752,167.69 236.365,168.879 242.857,170.57 Z" style="stroke:none;fill-rule:nonzero;fill:#1DA9FF;fill-opacity:1;"></path>
    </g>
    <g id="Shape58">
      <desc type="0" transform="matrix(2.04339,0,0,2.04339,210.083,223.961)"></desc>
      <path id="shapePath58" d="M242.857,170.57 C242.857,170.57 256.507,185.977 243.613,281.321 L175.099,281.321 C174.629,270.798 181.229,219.488 171.012,169.916 C178.584,168.459 186.242,167.49 193.939,167.014 C203.644,166.462 213.372,166.462 223.077,167.014 C229.752,167.69 236.365,168.879 242.857,170.57 Z" style="stroke:none;fill-rule:nonzero;fill:#fafafa;fill-opacity:0.6;"></path>
    </g>
    <g id="Shape59">
      <desc type="0" transform="matrix(2.04339,0,0,2.04339,241.992,212.153)"></desc>
      <path id="shapePath59" d="M248.845,199.708 L248.599,199.484 L234.97,192.209 C233.58,213.195 242.96,226.354 248.538,232.096 C249.237,221.314 249.34,210.502 248.845,199.708 Z" style="stroke:none;fill-rule:nonzero;fill:#000000;fill-opacity:0.2;"></path>
    </g>
    <g id="Shape60">
      <desc type="0" transform="matrix(2.04339,0,0,2.04339,210.379,127.473)"></desc>
      <path id="shapePath60" d="M191.548,124.696 C194.838,136.956 196.146,144.333 203.808,149.441 C215.21,157.124 229.392,148.297 229.841,135.28 C230.229,123.572 224.794,105.447 211.614,102.974 C205.697,101.804 199.597,103.79 195.504,108.221 C191.411,112.651 189.913,118.89 191.548,124.696 Z" style="stroke:none;fill-rule:nonzero;fill:#b55b52;fill-opacity:1;"></path>
    </g>
    <g id="Shape61">
      <desc type="0" transform="matrix(2.04339,0,0,2.04339,168.774,435.158)"></desc>
      <path id="shapePath61" d="M219.318,281.321 C219.318,281.321 204.769,379.22 196.84,415.919 C188.054,456.174 141.179,588.994 141.179,588.994 L118.231,584.029 C118.231,584.029 147.636,475.729 155.012,419.577 C157.873,397.651 161.326,362.362 165.699,332.876 C169.929,304.269 175.14,281.342 175.14,281.342 L219.318,281.321 Z" style="stroke:none;fill-rule:nonzero;fill:#263238;fill-opacity:1;"></path>
    </g>
    <g id="Shape62">
      <desc type="0" transform="matrix(2.04339,0,0,2.04339,131.636,582.956)"></desc>
      <path id="shapePath62" d="M146.675,581.331 C146.675,581.331 142.384,589.628 142.384,589.628 L116.597,584.029 L118.763,576.284 L146.675,581.331 Z" style="stroke:none;fill-rule:nonzero;fill:#1DA9FF;fill-opacity:1;"></path>
    </g>
    <g id="Shape63">
      <desc type="0" transform="matrix(2.04339,0,0,2.04339,131.636,582.956)"></desc>
      <path id="shapePath63" d="M146.675,581.331 C146.675,581.331 142.384,589.628 142.384,589.628 L116.597,584.029 L118.763,576.284 L146.675,581.331 Z" style="stroke:none;fill-rule:nonzero;fill:#b3e2ff;fill-opacity:0.6;"></path>
    </g>
    <g id="Shape64">
      <desc type="0" transform="matrix(2.04339,0,0,2.04339,204.872,365.255)"></desc>
      <path id="shapePath64" d="M210.122,316.202 C193.305,319.492 195.083,382.203 197.106,414.448 C201.969,391.644 209.06,347.793 213.903,316.651 C212.731,316.075 211.397,315.916 210.122,316.202 Z" style="stroke:none;fill-rule:nonzero;fill:#000000;fill-opacity:0.6;"></path>
    </g>
    <g id="Shape65">
      <desc type="0" transform="matrix(2.04339,0,0,2.04339,223.916,435.587)"></desc>
      <path id="shapePath65" d="M243.613,281.321 C243.613,281.321 250.459,377.115 249.069,416.185 C247.619,456.828 228.349,589.873 228.349,589.873 L206.649,589.873 C206.649,589.873 205.852,459.096 204.891,419.27 C203.829,375.746 198.577,281.301 198.577,281.301 L243.613,281.321 Z" style="stroke:none;fill-rule:nonzero;fill:#263238;fill-opacity:1;"></path>
    </g>
    <g id="Shape66">
      <desc type="0" transform="matrix(2.04339,0,0,2.04339,218.35,585.755)"></desc>
      <path id="shapePath66" d="M232.518,581.25 C232.62,581.25 231.292,590.261 231.292,590.261 L204.891,590.261 L204.176,582.21 L232.518,581.25 Z" style="stroke:none;fill-rule:nonzero;fill:#1DA9FF;fill-opacity:1;"></path>
    </g>
    <g id="Shape67">
      <desc type="0" transform="matrix(2.04339,0,0,2.04339,218.35,585.755)"></desc>
      <path id="shapePath67" d="M232.518,581.25 C232.62,581.25 231.292,590.261 231.292,590.261 L204.891,590.261 L204.176,582.21 L232.518,581.25 Z" style="stroke:none;fill-rule:nonzero;fill:#b3e2ff;fill-opacity:0.6;"></path>
    </g>
    <g id="Shape68">
      <desc type="0" transform="matrix(2.04339,0,0,2.04339,252.85,197.65)"></desc>
      <path id="shapePath68" d="M234.868,188.49 C234.868,214.196 248.538,224.781 248.538,224.781 L270.831,203.08 C265.555,194.262 259.546,185.902 252.87,178.089 C239.976,163.316 234.868,171.98 234.868,188.49 Z" style="stroke:none;fill-rule:nonzero;fill:#263238;fill-opacity:1;"></path>
    </g>
    <g id="Shape69">
      <desc type="0" transform="matrix(2.04339,0,0,2.04339,223.353,145.661)"></desc>
      <path id="shapePath69" d="M228.983,139.939 C228.06,142.555 225.902,144.544 223.22,145.252 C220.237,145.861 218.005,148.351 217.724,151.382 C223.091,149.588 227.275,145.335 228.983,139.939 Z" style="stroke:none;fill-rule:nonzero;fill:#000000;fill-opacity:0.2;"></path>
    </g>
    <g id="Shape70">
      <desc type="0" transform="matrix(2.04339,0,0,2.04339,200.196,118.592)"></desc>
      <path id="shapePath70" d="M223.22,100.277 C227.798,94.4944 220.748,94.1471 220.748,94.1471 C222.587,87.2609 214.332,90.9594 214.332,90.9594 C209.387,84.1345 206.587,92.4511 206.587,92.4511 C201.458,86.6683 200.457,96.1087 200.457,96.1087 C195.308,88.773 192.692,99.3577 192.692,99.3577 C187.952,91.7359 185.05,101.646 185.05,101.646 C175.262,98.1521 179.901,108.328 179.901,108.328 C171.564,108.553 178.266,115.03 178.266,115.03 C168.253,115.03 177.081,120.772 177.081,120.772 C169.132,125.983 179.124,127.393 179.124,127.393 C172.647,137.61 183.783,133.768 183.783,133.768 C179.267,143.822 189.259,139.388 189.259,139.388 C188.626,149.073 194.204,146.437 196.902,144.639 C197.413,146.683 198.393,148.726 200.191,148.889 C203.686,149.359 204.278,142.759 204.278,142.759 C204.278,142.759 207.507,145.293 210.225,143.924 C212.942,142.555 211.921,139.102 211.921,139.102 C213.132,140.007 214.796,140.007 216.007,139.102 C217.172,138.202 217.172,131.705 215.701,129.416 L221.014,127.373 C221.014,127.373 224.957,126.821 223.2,121.61 C222.14,118.615 222.047,115.363 222.934,112.313 C228.942,109.493 223.997,106.183 223.997,106.183 C230.965,101.708 223.22,100.277 223.22,100.277 Z" style="stroke:none;fill-rule:nonzero;fill:#263238;fill-opacity:1;"></path>
    </g>
    <g id="Shape71">
      <desc type="0" transform="matrix(2.04339,0,0,2.04339,217.734,126.431)"></desc>
      <path id="shapePath71" d="M212.452,125.145 C213.284,128.194 215.101,130.881 217.622,132.788 C220.952,135.28 223.445,132.788 223.2,129.048 C222.996,125.656 220.993,120.282 217.315,119.26 C213.637,118.239 211.573,121.528 212.452,125.145 Z" style="stroke:none;fill-rule:nonzero;fill:#b55b52;fill-opacity:1;"></path>
    </g>
  </g>
</svg>
